<?xml version="1.0" encoding="utf-8"?>
<!-- Generator: Adobe Illustrator 16.0.0, SVG Export Plug-In . SVG Version: 6.00 Build 0)  -->
<!DOCTYPE svg PUBLIC "-//W3C//DTD SVG 1.1//EN" "http://www.w3.org/Graphics/SVG/1.1/DTD/svg11.dtd">
<svg version="1.1" id="Layer_1" xmlns="http://www.w3.org/2000/svg" xmlns:xlink="http://www.w3.org/1999/xlink" x="0px" y="0px"
	 width="1024px" height="527px" viewBox="0 0 1024 527" enable-background="new 0 0 1024 527" xml:space="preserve">
<g>
	<path fill="none" d="M454.552,337.987c-1.567-0.94-2.909-1.632-4.03-2.076c-1.126-0.441-3.017-1.083-5.676-1.916
		c-2.657-0.833-4.567-1.565-5.711-2.189c-1.15-0.63-1.725-1.492-1.725-2.587c0-1.979,1.812-2.973,5.438-2.973
		c3.626,0,7.264,1.254,10.919,3.76l4.384-7.83c-4.962-3.336-9.915-5.006-14.871-5.006c-4.959,0-8.998,1.229-12.13,3.676
		c-3.13,2.456-4.692,5.624-4.692,9.512c0,3.885,1.591,6.816,4.771,8.8c1.567,0.993,2.958,1.748,4.187,2.271
		c1.225,0.522,3.002,1.146,5.322,1.879c2.32,0.731,4.094,1.515,5.322,2.346c1.225,0.836,1.838,1.75,1.838,2.74
		c0,0.993-0.441,1.786-1.327,2.384c-0.891,0.604-2.093,0.9-3.603,0.9c-4.956,0-9.622-1.692-14.006-5.087l-5.168,7.357
		c2.717,2.191,5.769,3.847,9.16,4.971c3.388,1.117,6.651,1.684,9.781,1.684c4.697,0,8.565-1.254,11.619-3.757
		c3.054-2.506,4.576-5.83,4.576-9.977C458.93,342.72,457.47,339.761,454.552,337.987z"/>
	<path fill="none" d="M438.543,277.673c0-6.263-1.905-11.387-5.711-15.378c-3.81-3.99-8.269-5.986-13.385-5.986
		c-5.11,0-9.282,1.801-12.516,5.4v-20.657h-11.738v58.06h11.738v-5.558c3.287,4.123,7.421,6.185,12.403,6.185
		c4.982,0,9.43-2.11,13.338-6.338C436.586,289.173,438.543,283.93,438.543,277.673z M423.678,286.473
		c-2.038,2.163-4.41,3.246-7.125,3.246c-2.712,0-5.017-1.083-6.924-3.246c-1.905-2.16-2.854-4.956-2.854-8.37
		c0-3.419,0.949-6.26,2.854-8.53c1.907-2.268,4.239-3.404,7.005-3.404c2.764,0,5.139,1.148,7.119,3.442
		c1.986,2.296,2.976,5.141,2.976,8.53C426.729,281.531,425.71,284.312,423.678,286.473z"/>
	<path fill="none" d="M516.794,286.517c-1.516,1.982-3.364,2.97-5.557,2.97c-1.15,0-2.137-0.453-2.973-1.37
		c-0.836-0.909-1.254-2.175-1.254-3.798v-39.905h-11.816v40.46c0,4.59,1.399,8.214,4.187,10.876
		c2.793,2.656,6.208,3.989,10.255,3.989c4.041,0,7.885-1.669,11.541-5.008L516.794,286.517z"/>
	<path fill="none" d="M412.999,322.024c-3.861-3.237-8.658-4.854-14.4-4.854c-5.737,0-10.812,1.983-15.22,5.949
		s-6.611,9.14-6.611,15.53c0,6.393,2.009,11.648,6.027,15.768c4.015,4.12,9.398,6.185,16.157,6.185
		c6.756,0,12.818-2.843,18.192-8.533l-6.73-7.275c-1.249,1.881-2.933,3.379-5.046,4.497c-2.114,1.126-4.294,1.684-6.533,1.684
		c-3.29,0-5.818-1.12-7.592-3.362l28.015-11.584v-1.483C418.945,329.431,416.86,325.259,412.999,322.024z M388.35,339.396
		c-0.052-0.313-0.082-0.787-0.082-1.408c0-3.342,1.109-5.949,3.331-7.824c2.215-1.882,4.758-2.819,7.627-2.819
		c4.279,0,6.759,1.541,7.433,4.616L388.35,339.396z"/>
	<path fill="none" d="M466.909,299.738c6.756,0,12.821-2.843,18.195-8.533l-6.733-7.275c-1.251,1.881-2.933,3.379-5.046,4.5
		c-2.114,1.124-4.291,1.681-6.533,1.681c-3.29,0-5.821-1.12-7.592-3.361l28.015-11.582v-1.485c-0.313-5.111-2.398-9.284-6.26-12.521
		c-3.861-3.234-8.658-4.853-14.4-4.853c-5.737,0-10.812,1.983-15.22,5.949c-4.407,3.964-6.611,9.14-6.611,15.529
		c0,6.394,2.009,11.648,6.027,15.768C454.767,297.677,460.152,299.738,466.909,299.738z M459.555,269.3
		c2.215-1.88,4.755-2.819,7.627-2.819c4.279,0,6.759,1.541,7.433,4.615l-18.309,7.437c-0.052-0.313-0.082-0.784-0.082-1.408
		C456.224,273.783,457.333,271.177,459.555,269.3z"/>
	<path fill="none" d="M364.6,319.049c-2.268,1.202-4.158,2.659-5.673,4.378v-5.551h-11.738v42.096h11.738v-18.233
		c0-4.067,0.859-7.34,2.584-9.819c1.719-2.474,4.326-3.716,7.828-3.716h2.265l-0.076-11.033
		C369.182,317.223,366.871,317.85,364.6,319.049z"/>
	<path fill="none" d="M384.082,299.111v-42.098h-11.814v3.521c-3.133-2.816-6.814-4.226-11.036-4.226
		c-5.423,0-10.196,1.957-14.319,5.868c-4.123,3.915-6.181,9.145-6.181,15.691c0,6.547,2.009,11.828,6.024,15.844
		c4.016,4.019,8.71,6.027,14.087,6.027c4.274,0,8.08-1.355,11.425-4.07v3.443H384.082z M369.605,286.554
		c-1.878,2.166-4.175,3.249-6.887,3.249s-5.087-1.083-7.119-3.249c-2.038-2.165-3.054-4.97-3.054-8.413s0.99-6.298,2.973-8.568
		c1.98-2.268,4.354-3.404,7.125-3.404c2.764,0,5.084,1.148,6.962,3.442c1.875,2.296,2.816,5.153,2.816,8.57
		S371.481,284.389,369.605,286.554z"/>
	<path fill="none" d="M501.575,322.024c-3.858-3.237-8.658-4.854-14.395-4.854c-5.74,0-10.812,1.983-15.219,5.949
		c-4.41,3.966-6.614,9.14-6.614,15.53c0,6.393,2.006,11.648,6.027,15.768c4.018,4.12,9.401,6.185,16.157,6.185
		s12.821-2.843,18.189-8.533l-6.724-7.275c-1.254,1.881-2.935,3.379-5.052,4.497c-2.108,1.126-4.289,1.684-6.533,1.684
		c-3.287,0-5.818-1.12-7.589-3.362l28.015-11.584v-1.483C507.524,329.431,505.437,325.259,501.575,322.024z M476.928,339.396
		c-0.049-0.313-0.079-0.787-0.079-1.408c0-3.342,1.109-5.949,3.324-7.824c2.216-1.882,4.762-2.819,7.63-2.819
		c4.28,0,6.756,1.541,7.433,4.616L476.928,339.396z"/>
	<path fill="none" d="M585.424,319.049c-2.271,1.202-4.163,2.659-5.673,4.378v-5.551H568.01v42.096h11.741v-18.233
		c0-4.067,0.859-7.34,2.581-9.819c1.722-2.474,4.332-3.716,7.824-3.716h2.271l-0.081-11.033
		C590,317.223,587.691,317.85,585.424,319.049z"/>
	<path fill="none" d="M636.137,255.503c5.015,3.485,22.736,19.139,27.922,21.197c5.186,2.056,13.06,5.876,13.846,6.872
		c0.79,0.999,3.014-5.621-5.356-19.085c-8.367-13.463-16.868-18.235-19.699-20.999c-2.834-2.769-4.648-4.25-4.648-4.25
		s-12.147-5.947-20.198-12.863c-8.052-6.917-11.161-11.263-11.161-11.263s8.063-7.302,9.509-10.388
		c1.449-3.086,5.354-5.804,6.309-6.238c0.956-0.428,11.222-4.079,11.222-4.079s0.023-3.256-2.522-3.188
		c-2.535,0.06-7.45,0.806-9.991,0.874c-2.54,0.06-4.45-1.129-8.46-0.874c-4.013,0.25-18.936,7.183-22.507,6.762
		c-3.571-0.42-17.27-7.999-23.503-13.431c-6.239-5.434-8.765-12.142-12.452-16.34c-4.681-5.333-19.604-12.72-24.479-14.376
		c-4.869-1.659-32.776-7.467-32.776-7.467s5.284,12.014,10.06,16.014c4.776,4,16.102,9.88,17.751,10.593
		c5.113,2.198,16.784,24.546,22.789,28.868c6.004,4.322,19.94,16.638,19.94,16.638s-5.075,8.86-7.401,10.371
		c-2.319,1.513-11.9,5.927-14.63,9.294c-1.432,1.753-1.841,5.826,1.814,9.311c3.052,2.908,9.596-2.336,12.952-4.14
		c4.245-2.284,14.107-9.199,16.694-9.62c2.578-0.417,8.939-2.203,8.939-2.203s7.352,5.205,11.727,9.518
		C612.204,245.322,631.117,252.017,636.137,255.503z M586.725,231.763c-2.521,0.964-10.255,5.081-14.256,7.696
		c-3.998,2.62-5.261,3.5-7.421,4.229c-1.579,0.531-0.412-4.556-0.412-4.556s-7.18,0.077-6.19-0.801
		c2.95-2.633,12.369-6.593,15.771-9.492c3.408-2.9,9.459-12.444,17.252-20.408s16.846-9.311,21.686-11.985
		c4.837-2.669,11.244-3.501,11.244-3.501l-4.569,3.476c0,0,5.986-1.867,5.324-0.122c-0.517,1.371,2.07,3.523,1.173,5.442
		c-0.899,1.917-8.182,10.04-10.423,12.294c-2.235,2.25-16.375,13.317-19.377,14.979
		C593.524,230.672,589.242,230.799,586.725,231.763z"/>
	<path fill="none" d="M668.6,317.17c-4.407,0-8.385,1.8-11.93,5.4v-20.657h-11.738v58.059h11.738v-22.69
		c0-3.286,0.87-5.777,2.621-7.473c1.745-1.695,3.795-2.541,6.141-2.541c4.75,0,7.122,3.234,7.122,9.7v23.004h11.735v-25.585
		c0-5.217-1.513-9.393-4.535-12.519C676.726,318.735,673.01,317.17,668.6,317.17z"/>
	<path fill="none" d="M545.241,321.395c-3.13-2.813-6.806-4.225-11.032-4.225c-5.43,0-10.2,1.957-14.32,5.868
		c-4.122,3.913-6.184,9.143-6.184,15.689s2.009,11.828,6.027,15.844c4.016,4.021,8.71,6.03,14.081,6.03
		c4.282,0,8.089-1.359,11.428-4.073v3.443h11.816v-42.096h-11.816V321.395z M542.582,347.417c-1.882,2.163-4.175,3.246-6.887,3.246
		c-2.715,0-5.087-1.083-7.125-3.246c-2.029-2.166-3.049-4.974-3.049-8.417s0.993-6.294,2.977-8.567
		c1.979-2.265,4.352-3.402,7.119-3.402c2.764,0,5.083,1.149,6.965,3.443c1.875,2.296,2.813,5.15,2.813,8.57
		C545.396,342.461,544.457,345.251,542.582,347.417z"/>
	<path fill="none" d="M619.971,350.193c-2.976,0-5.568-0.99-7.783-2.974c-2.222-1.982-3.328-4.759-3.328-8.333
		c0-3.573,1.106-6.363,3.328-8.376c2.215-2.006,4.859-3.011,7.938-3.011c1.931,0,3.876,0.441,5.833,1.327
		c1.954,0.892,3.608,2.14,4.968,3.76l6.103-7.981c-2.346-2.456-5.075-4.306-8.176-5.557c-3.106-1.255-6.173-1.879-9.192-1.879
		c-6.057,0-11.285,2.021-15.695,6.065c-4.404,4.044-6.608,9.288-6.608,15.728c0,6.445,2.178,11.66,6.533,15.652
		c4.354,3.991,9.688,5.986,16.003,5.986c6.312,0,12.177-2.819,17.605-8.452l-6.965-7.824
		C627.403,348.233,623.882,350.193,619.971,350.193z"/>
	<linearGradient id="SVGID_1_" gradientUnits="userSpaceOnUse" x1="129.9658" y1="66.1074" x2="792.9658" y2="556.1073">
		<stop  offset="0" style="stop-color:#26A3CA"/>
		<stop  offset="1" style="stop-color:#63C9DA"/>
	</linearGradient>
	<path fill="url(#SVGID_1_)" d="M416.634,266.168c-2.767,0-5.098,1.137-7.005,3.404c-1.905,2.271-2.854,5.111-2.854,8.53
		c0,3.414,0.949,6.21,2.854,8.37c1.907,2.163,4.212,3.246,6.924,3.246c2.715,0,5.087-1.083,7.125-3.246
		c2.032-2.16,3.051-4.941,3.051-8.332c0-3.39-0.99-6.234-2.976-8.53C421.773,267.316,419.398,266.168,416.634,266.168z"/>
	<linearGradient id="SVGID_2_" gradientUnits="userSpaceOnUse" x1="96.0415" y1="112.0088" x2="759.0416" y2="602.0088">
		<stop  offset="0" style="stop-color:#26A3CA"/>
		<stop  offset="1" style="stop-color:#63C9DA"/>
	</linearGradient>
	<path fill="url(#SVGID_2_)" d="M399.226,327.344c-2.869,0-5.412,0.938-7.627,2.819c-2.221,1.875-3.331,4.482-3.331,7.824
		c0,0.621,0.029,1.095,0.082,1.408l18.309-7.436C405.984,328.885,403.505,327.344,399.226,327.344z"/>
	<linearGradient id="SVGID_3_" gradientUnits="userSpaceOnUse" x1="127.3325" y1="69.6699" x2="790.3326" y2="559.6699">
		<stop  offset="0" style="stop-color:#26A3CA"/>
		<stop  offset="1" style="stop-color:#63C9DA"/>
	</linearGradient>
	<path fill="url(#SVGID_3_)" d="M487.804,327.344c-2.869,0-5.415,0.938-7.63,2.819c-2.215,1.875-3.324,4.482-3.324,7.824
		c0,0.621,0.029,1.095,0.079,1.408l18.309-7.436C494.561,328.885,492.084,327.344,487.804,327.344z"/>
	<linearGradient id="SVGID_4_" gradientUnits="userSpaceOnUse" x1="110.8677" y1="91.9482" x2="773.8677" y2="581.9482">
		<stop  offset="0" style="stop-color:#26A3CA"/>
		<stop  offset="1" style="stop-color:#63C9DA"/>
	</linearGradient>
	<path fill="url(#SVGID_4_)" d="M369.605,269.61c-1.878-2.294-4.198-3.442-6.962-3.442c-2.77,0-5.145,1.137-7.125,3.404
		c-1.983,2.271-2.973,5.125-2.973,8.568s1.016,6.248,3.054,8.413c2.032,2.166,4.407,3.249,7.119,3.249s5.008-1.083,6.887-3.249
		c1.875-2.165,2.816-4.956,2.816-8.373S371.481,271.906,369.605,269.61z"/>
	<linearGradient id="SVGID_5_" gradientUnits="userSpaceOnUse" x1="149.1392" y1="40.1646" x2="812.1392" y2="530.1646">
		<stop  offset="0" style="stop-color:#26A3CA"/>
		<stop  offset="1" style="stop-color:#63C9DA"/>
	</linearGradient>
	<path fill="url(#SVGID_5_)" d="M474.614,271.096c-0.674-3.074-3.153-4.615-7.433-4.615c-2.872,0-5.412,0.939-7.627,2.819
		c-2.221,1.877-3.331,4.483-3.331,7.824c0,0.624,0.029,1.095,0.082,1.408L474.614,271.096z"/>
	<linearGradient id="SVGID_6_" gradientUnits="userSpaceOnUse" x1="142.8813" y1="48.6318" x2="805.8814" y2="538.6318">
		<stop  offset="0" style="stop-color:#26A3CA"/>
		<stop  offset="1" style="stop-color:#63C9DA"/>
	</linearGradient>
	<path fill="url(#SVGID_6_)" d="M535.617,327.03c-2.768,0-5.14,1.138-7.119,3.402c-1.983,2.273-2.977,5.124-2.977,8.567
		s1.02,6.251,3.049,8.417c2.038,2.163,4.41,3.246,7.125,3.246c2.712,0,5.005-1.083,6.887-3.246c1.875-2.166,2.813-4.956,2.813-8.373
		c0-3.42-0.938-6.274-2.813-8.57C540.7,328.18,538.381,327.03,535.617,327.03z"/>
	<linearGradient id="SVGID_7_" gradientUnits="userSpaceOnUse" x1="170.5728" y1="11.1631" x2="833.5728" y2="501.1631">
		<stop  offset="0" style="stop-color:#26A3CA"/>
		<stop  offset="1" style="stop-color:#63C9DA"/>
	</linearGradient>
	<path fill="url(#SVGID_7_)" d="M0,0v527h1024V0H0z M451.335,262.257c4.407-3.966,9.482-5.949,15.22-5.949
		c5.743,0,10.539,1.618,14.4,4.853c3.861,3.236,5.946,7.409,6.26,12.521v1.485L459.2,286.749c1.771,2.241,4.303,3.361,7.592,3.361
		c2.242,0,4.419-0.557,6.533-1.681c2.113-1.121,3.794-2.619,5.046-4.5l6.733,7.275c-5.374,5.69-11.439,8.533-18.195,8.533
		s-12.142-2.062-16.157-6.185c-4.018-4.119-6.027-9.374-6.027-15.768C444.724,271.397,446.928,266.222,451.335,262.257z
		 M369.338,328.203c-3.501,0-6.109,1.242-7.828,3.716c-1.725,2.479-2.584,5.752-2.584,9.819v18.233h-11.738v-42.096h11.738v5.551
		c1.516-1.719,3.406-3.176,5.673-4.378c2.271-1.199,4.582-1.826,6.927-1.879l0.076,11.033H369.338z M360.843,299.738
		c-5.377,0-10.071-2.009-14.087-6.027c-4.015-4.016-6.024-9.297-6.024-15.844c0-6.546,2.059-11.776,6.181-15.691
		c4.123-3.911,8.896-5.868,14.319-5.868c4.222,0,7.903,1.409,11.036,4.226v-3.521h11.814v42.098h-11.814v-3.443
		C368.923,298.383,365.117,299.738,360.843,299.738z M419.259,336.027l-28.015,11.584c1.774,2.242,4.303,3.362,7.592,3.362
		c2.239,0,4.419-0.558,6.533-1.684c2.113-1.118,3.797-2.616,5.046-4.497l6.73,7.275c-5.374,5.69-11.436,8.533-18.192,8.533
		c-6.759,0-12.142-2.064-16.157-6.185c-4.018-4.119-6.027-9.375-6.027-15.768c0-6.391,2.204-11.564,6.611-15.53
		s9.482-5.949,15.22-5.949c5.743,0,10.539,1.617,14.4,4.854c3.861,3.234,5.946,7.406,6.26,12.52V336.027z M406.931,293.554v5.558
		h-11.738v-58.06h11.738v20.657c3.234-3.599,7.406-5.4,12.516-5.4c5.116,0,9.575,1.996,13.385,5.986
		c3.806,3.991,5.711,9.115,5.711,15.378c0,6.257-1.957,11.5-5.871,15.728c-3.908,4.228-8.356,6.338-13.338,6.338
		C414.352,299.738,410.218,297.677,406.931,293.554z M454.354,356.845c-3.054,2.503-6.922,3.757-11.619,3.757
		c-3.13,0-6.394-0.566-9.781-1.684c-3.392-1.124-6.443-2.779-9.16-4.971l5.168-7.357c4.384,3.395,9.05,5.087,14.006,5.087
		c1.51,0,2.711-0.296,3.603-0.9c0.886-0.598,1.327-1.391,1.327-2.384c0-0.99-0.613-1.904-1.838-2.74
		c-1.228-0.831-3.002-1.614-5.322-2.346c-2.32-0.732-4.097-1.356-5.322-1.879c-1.229-0.522-2.619-1.277-4.187-2.271
		c-3.18-1.983-4.771-4.915-4.771-8.8c0-3.888,1.562-7.056,4.692-9.512c3.133-2.447,7.171-3.676,12.13-3.676
		c4.956,0,9.909,1.67,14.871,5.006l-4.384,7.83c-3.655-2.506-7.293-3.76-10.919-3.76c-3.626,0-5.438,0.993-5.438,2.973
		c0,1.095,0.575,1.957,1.725,2.587c1.144,0.624,3.054,1.356,5.711,2.189c2.659,0.833,4.549,1.475,5.676,1.916
		c1.121,0.444,2.462,1.136,4.03,2.076c2.918,1.773,4.378,4.732,4.378,8.881C458.93,351.015,457.409,354.339,454.354,356.845z
		 M507.837,336.027l-28.015,11.584c1.771,2.242,4.303,3.362,7.589,3.362c2.244,0,4.425-0.558,6.533-1.684
		c2.117-1.118,3.797-2.616,5.052-4.497l6.724,7.275c-5.368,5.69-11.434,8.533-18.189,8.533s-12.139-2.064-16.157-6.185
		c-4.021-4.119-6.027-9.375-6.027-15.768c0-6.391,2.204-11.564,6.614-15.53c4.407-3.966,9.479-5.949,15.219-5.949
		c5.737,0,10.537,1.617,14.395,4.854c3.862,3.234,5.949,7.406,6.263,12.52V336.027z M499.38,295.749
		c-2.787-2.662-4.187-6.286-4.187-10.876v-40.46h11.816v39.905c0,1.623,0.418,2.889,1.254,3.798c0.836,0.917,1.823,1.37,2.973,1.37
		c2.192,0,4.041-0.987,5.557-2.97l4.382,8.214c-3.656,3.339-7.5,5.008-11.541,5.008C505.587,299.738,502.173,298.405,499.38,295.749
		z M557.058,359.972h-11.816v-3.443c-3.339,2.714-7.146,4.073-11.428,4.073c-5.371,0-10.065-2.009-14.081-6.03
		c-4.019-4.016-6.027-9.297-6.027-15.844s2.062-11.776,6.184-15.689c4.12-3.911,8.891-5.868,14.32-5.868
		c4.227,0,7.902,1.411,11.032,4.225v-3.519h11.816V359.972z M590.156,328.203c-3.492,0-6.103,1.242-7.824,3.716
		c-1.722,2.479-2.581,5.752-2.581,9.819v18.233H568.01v-42.096h11.741v5.551c1.51-1.719,3.402-3.176,5.673-4.378
		c2.268-1.199,4.576-1.826,6.922-1.879l0.081,11.033H590.156z M587.16,233.694c-2.587,0.421-12.449,7.336-16.694,9.62
		c-3.356,1.804-9.9,7.048-12.952,4.14c-3.655-3.485-3.246-7.558-1.814-9.311c2.729-3.367,12.311-7.781,14.63-9.294
		c2.326-1.511,7.401-10.371,7.401-10.371s-13.937-12.316-19.94-16.638c-6.005-4.322-17.676-26.67-22.789-28.868
		c-1.649-0.713-12.975-6.593-17.751-10.593c-4.776-4-10.06-16.014-10.06-16.014s27.907,5.808,32.776,7.467
		c4.875,1.657,19.798,9.043,24.479,14.376c3.688,4.198,6.213,10.906,12.452,16.34c6.233,5.432,19.932,13.011,23.503,13.431
		c3.571,0.421,18.494-6.512,22.507-6.762c4.01-0.255,5.92,0.934,8.46,0.874c2.541-0.068,7.456-0.814,9.991-0.874
		c2.546-0.068,2.522,3.188,2.522,3.188s-10.266,3.651-11.222,4.079c-0.955,0.434-4.859,3.152-6.309,6.238
		c-1.445,3.086-9.509,10.388-9.509,10.388s3.109,4.346,11.161,11.263c8.051,6.916,20.198,12.863,20.198,12.863
		s1.814,1.481,4.648,4.25c2.831,2.764,11.332,7.536,19.699,20.999c8.37,13.464,6.146,20.084,5.356,19.085
		c-0.786-0.996-8.66-4.816-13.846-6.872c-5.186-2.059-22.907-17.712-27.922-21.197c-5.02-3.486-23.933-10.181-28.311-14.494
		c-4.375-4.313-11.727-9.518-11.727-9.518S589.738,233.277,587.16,233.694z M619.893,360.602c-6.314,0-11.648-1.995-16.003-5.986
		c-4.355-3.992-6.533-9.207-6.533-15.652c0-6.439,2.204-11.684,6.608-15.728c4.41-4.045,9.639-6.065,15.695-6.065
		c3.02,0,6.086,0.624,9.192,1.879c3.101,1.251,5.83,3.101,8.176,5.557l-6.103,7.981c-1.359-1.62-3.014-2.868-4.968-3.76
		c-1.957-0.886-3.902-1.327-5.833-1.327c-3.078,0-5.723,1.005-7.938,3.011c-2.222,2.013-3.328,4.803-3.328,8.376
		c0,3.574,1.106,6.351,3.328,8.333c2.215,1.983,4.808,2.974,7.783,2.974c3.911,0,7.433-1.96,10.562-5.868l6.965,7.824
		C632.069,357.782,626.204,360.602,619.893,360.602z M684.289,359.972h-11.735v-23.004c0-6.466-2.372-9.7-7.122-9.7
		c-2.346,0-4.396,0.846-6.141,2.541c-1.751,1.695-2.621,4.187-2.621,7.473v22.69h-11.738v-58.059h11.738v20.657
		c3.545-3.601,7.522-5.4,11.93-5.4c4.41,0,8.126,1.565,11.154,4.698c3.022,3.126,4.535,7.302,4.535,12.519V359.972z"/>
	<linearGradient id="SVGID_8_" gradientUnits="userSpaceOnUse" x1="221.3203" y1="-57.501" x2="884.3204" y2="432.499">
		<stop  offset="0" style="stop-color:#26A3CA"/>
		<stop  offset="1" style="stop-color:#63C9DA"/>
	</linearGradient>
	<path fill="url(#SVGID_8_)" d="M626.326,201.74c0.897-1.919-1.689-4.072-1.173-5.442c0.662-1.745-5.324,0.122-5.324,0.122
		l4.569-3.476c0,0-6.407,0.832-11.244,3.501c-4.84,2.674-13.893,4.021-21.686,11.985s-13.844,17.507-17.252,20.408
		c-3.402,2.899-12.821,6.859-15.771,9.492c-0.989,0.878,6.19,0.801,6.19,0.801s-1.167,5.087,0.412,4.556
		c2.16-0.729,3.423-1.608,7.421-4.229c4.001-2.615,11.735-6.731,14.256-7.696c2.518-0.964,6.8-1.091,9.802-2.75
		c3.002-1.661,17.142-12.729,19.377-14.979C618.145,211.779,625.427,203.657,626.326,201.74z"/>
</g>
</svg>
